<svg width="102" height="102" viewBox="0 0 102 102" fill="none" xmlns="http://www.w3.org/2000/svg">
<circle cx="51" cy="51" r="50" fill="url(#paint0_linear_0_1)" stroke="black"/>
<path d="M0.528587 58V43.4545H4.04421V55.1449H10.0953V58H0.528587ZM18.9537 53.2912V47.0909H22.4196V58H19.1099V55.9688H18.9963C18.7548 56.6364 18.3429 57.1667 17.7605 57.5597C17.1828 57.9479 16.4844 58.142 15.6653 58.142C14.9219 58.142 14.2685 57.9716 13.7051 57.6307C13.1416 57.2898 12.7037 56.8139 12.3912 56.2031C12.0787 55.5876 11.92 54.8679 11.9153 54.044V47.0909H15.3883V53.3622C15.3931 53.9541 15.5493 54.4205 15.8571 54.7614C16.1648 55.1023 16.5839 55.2727 17.1142 55.2727C17.4598 55.2727 17.7699 55.197 18.0446 55.0455C18.3239 54.8892 18.5441 54.6643 18.7051 54.3707C18.8708 54.0724 18.9537 53.7126 18.9537 53.2912ZM27.7623 55.1378L27.7765 50.9972H28.2594L31.3276 47.0909H35.2623L30.7026 52.6875H29.7864L27.7623 55.1378ZM24.6301 58V43.4545H28.1032V58H24.6301ZM31.4057 58L28.5506 53.4688L30.8375 51.0043L35.4185 58H31.4057Z" fill="#A5A72D"/>
<path d="M36.5051 58V47.0909H39.9782V58H36.5051ZM38.2452 45.8196C37.7575 45.8196 37.3385 45.6586 36.9881 45.3366C36.6377 45.0099 36.4625 44.617 36.4625 44.1577C36.4625 43.7031 36.6377 43.3149 36.9881 42.9929C37.3385 42.6662 37.7575 42.5028 38.2452 42.5028C38.7376 42.5028 39.1567 42.6662 39.5023 42.9929C39.8527 43.3149 40.0279 43.7031 40.0279 44.1577C40.0279 44.617 39.8527 45.0099 39.5023 45.3366C39.1567 45.6586 38.7376 45.8196 38.2452 45.8196ZM42.1887 58V47.0909H45.4913V49.0938H45.612C45.8393 48.4309 46.2228 47.9077 46.7626 47.5241C47.3024 47.1406 47.9463 46.9489 48.6944 46.9489C49.452 46.9489 50.1007 47.143 50.6404 47.5312C51.1802 47.9195 51.5235 48.4403 51.6703 49.0938H51.7839C51.9875 48.4451 52.3852 47.9266 52.9771 47.5384C53.569 47.1454 54.2673 46.9489 55.0723 46.9489C56.1045 46.9489 56.9425 47.2803 57.5865 47.9432C58.2304 48.6013 58.5524 49.5057 58.5524 50.6562V58H55.0794V51.4517C55.0794 50.9072 54.9397 50.4929 54.6603 50.2088C54.381 49.92 54.0188 49.7756 53.5737 49.7756C53.0955 49.7756 52.719 49.9318 52.4444 50.2443C52.1745 50.5521 52.0396 50.9664 52.0396 51.4872V58H48.7015V51.4162C48.7015 50.9096 48.5642 50.5095 48.2896 50.2159C48.015 49.9223 47.6528 49.7756 47.2029 49.7756C46.8999 49.7756 46.6324 49.849 46.4004 49.9957C46.1684 50.1378 45.9861 50.3414 45.8535 50.6065C45.7257 50.8717 45.6618 51.1842 45.6618 51.544V58H42.1887ZM86.1305 43.4545V58H83.1476L77.3592 49.6051H77.2669V58H73.7512V43.4545H76.7768L82.5012 51.8352H82.622V43.4545H86.1305Z" fill="#A40E3B"/>
<path d="M60.7044 58V43.4545H66.7129C67.8019 43.4545 68.7418 43.6676 69.5325 44.0938C70.3279 44.5152 70.9411 45.1046 71.372 45.8622C71.8029 46.6151 72.0183 47.491 72.0183 48.4901C72.0183 49.4938 71.7981 50.3722 71.3578 51.125C70.9222 51.8731 70.2995 52.4531 69.4899 52.8651C68.6802 53.277 67.719 53.483 66.6064 53.483H62.899V50.7131H65.9529C66.4833 50.7131 66.926 50.6207 67.2811 50.4361C67.6409 50.2514 67.9132 49.9934 68.0978 49.6619C68.2825 49.3258 68.3748 48.9351 68.3748 48.4901C68.3748 48.0402 68.2825 47.652 68.0978 47.3253C67.9132 46.9938 67.6409 46.7382 67.2811 46.5582C66.9212 46.3783 66.4785 46.2884 65.9529 46.2884H64.22V58H60.7044Z" fill="#220D13"/>
<path d="M97.8865 48.206C97.806 47.9077 97.6877 47.6449 97.5314 47.4176C97.3752 47.1856 97.1834 46.9891 96.9561 46.8281C96.7289 46.6671 96.4685 46.5464 96.1749 46.4659C95.8813 46.3807 95.5594 46.3381 95.209 46.3381C94.5035 46.3381 93.8927 46.5085 93.3766 46.8494C92.8652 47.1903 92.4699 47.6875 92.1905 48.3409C91.9112 48.9896 91.7715 49.7779 91.7715 50.706C91.7715 51.6387 91.9064 52.4342 92.1763 53.0923C92.4462 53.7505 92.8368 54.2524 93.3482 54.598C93.8596 54.9437 94.4798 55.1165 95.209 55.1165C95.8529 55.1165 96.3974 55.0123 96.8425 54.804C97.2923 54.5909 97.6332 54.2902 97.8652 53.902C98.0972 53.5137 98.2132 53.0568 98.2132 52.5312L98.8667 52.6094H95.3297V50.0455H101.601V51.9702C101.601 53.2723 101.324 54.3873 100.77 55.3153C100.221 56.2434 99.4632 56.956 98.4973 57.4531C97.5362 57.9503 96.4306 58.1989 95.1806 58.1989C93.7933 58.1989 92.574 57.8982 91.5229 57.2969C90.4718 56.6955 89.6526 55.8385 89.0655 54.7259C88.4784 53.6084 88.1848 52.2827 88.1848 50.7486C88.1848 49.5554 88.3624 48.4972 88.7175 47.5739C89.0726 46.6458 89.5674 45.8598 90.2019 45.2159C90.8411 44.572 91.5797 44.0843 92.4178 43.7528C93.2606 43.4214 94.1673 43.2557 95.138 43.2557C95.9808 43.2557 96.7644 43.3764 97.4888 43.6179C98.218 43.8594 98.8619 44.2003 99.4206 44.6406C99.9841 45.081 100.441 45.6042 100.791 46.2102C101.142 46.8163 101.36 47.4815 101.445 48.206H97.8865Z" fill="#121010"/>
<defs>
<linearGradient id="paint0_linear_0_1" x1="51" y1="1" x2="51" y2="101" gradientUnits="userSpaceOnUse">
<stop stop-color="#F5F1F5"/>
<stop offset="1" stop-color="#F5F1F5" stop-opacity="0"/>
</linearGradient>
</defs>
</svg>
