<svg width="96" height="16" viewBox="0 0 96 16" fill="none" xmlns="http://www.w3.org/2000/svg">
<mask id="path-1-outside-1_1_2" maskUnits="userSpaceOnUse" x="-1" y="-1" width="99" height="18" fill="black">
<rect fill="white" x="-1" y="-1" width="99" height="18"/>
<path d="M0.513317 15V0.454545H2.27468V13.4375H9.03604V15H0.513317ZM18.411 10.5398V4.09091H20.0872V15H18.411V13.1534H18.2974C18.0417 13.7074 17.644 14.1785 17.1042 14.5668C16.5645 14.9503 15.8826 15.142 15.0588 15.142C14.377 15.142 13.7709 14.9929 13.2406 14.6946C12.7103 14.3916 12.2936 13.937 11.9906 13.331C11.6876 12.7202 11.536 11.9508 11.536 11.0227V4.09091H13.2122V10.9091C13.2122 11.7045 13.4347 12.339 13.8798 12.8125C14.3296 13.286 14.9025 13.5227 15.5985 13.5227C16.0152 13.5227 16.439 13.4162 16.8699 13.2031C17.3055 12.9901 17.67 12.6634 17.9636 12.223C18.2619 11.7827 18.411 11.2216 18.411 10.5398ZM24.7196 11.0227L24.6912 8.94886H25.0321L29.8049 4.09091H31.8787L26.7935 9.23295H26.6515L24.7196 11.0227ZM23.1571 15V0.454545H24.8333V15H23.1571ZM30.089 15L25.8276 9.60227L27.0208 8.4375L32.2196 15H30.089Z"/>
<path d="M34.036 15V4.09091H35.7122V15H34.036ZM34.8883 2.27273C34.5616 2.27273 34.2799 2.16146 34.0431 1.93892C33.8111 1.71638 33.6951 1.44886 33.6951 1.13636C33.6951 0.823864 33.8111 0.556345 34.0431 0.333806C34.2799 0.111269 34.5616 0 34.8883 0C35.215 0 35.4944 0.111269 35.7264 0.333806C35.9631 0.556345 36.0815 0.823864 36.0815 1.13636C36.0815 1.44886 35.9631 1.71638 35.7264 1.93892C35.4944 2.16146 35.215 2.27273 34.8883 2.27273ZM38.7821 15V4.09091H40.4015V5.79545H40.5435C40.7708 5.21307 41.1377 4.76089 41.6444 4.43892C42.151 4.11222 42.7594 3.94886 43.4696 3.94886C44.1893 3.94886 44.7883 4.11222 45.2665 4.43892C45.7495 4.76089 46.1259 5.21307 46.3958 5.79545H46.5094C46.7888 5.23201 47.2078 4.78456 47.7665 4.45312C48.3252 4.11695 48.9952 3.94886 49.7765 3.94886C50.7518 3.94886 51.5497 4.25426 52.1699 4.86506C52.7902 5.47112 53.1003 6.41572 53.1003 7.69886V15H51.4242V7.69886C51.4242 6.89394 51.204 6.31866 50.7637 5.97301C50.3233 5.62737 49.8049 5.45455 49.2083 5.45455C48.4412 5.45455 47.847 5.68655 47.4256 6.15057C47.0042 6.60985 46.7935 7.19223 46.7935 7.89773V15H45.089V7.52841C45.089 6.90814 44.8877 6.40862 44.4853 6.02983C44.0828 5.64631 43.5643 5.45455 42.9299 5.45455C42.4943 5.45455 42.0871 5.57055 41.7083 5.80256C41.3342 6.03456 41.0312 6.35653 40.7992 6.76847C40.5719 7.17566 40.4583 7.64678 40.4583 8.18182V15H38.7821ZM80.6216 0.454545V15H78.9171L70.9909 3.57955H70.8489V15H69.0875V0.454545H70.7921L78.7466 11.9034H78.8887V0.454545H80.6216Z"/>
<path d="M56.3922 15V0.454545H61.307C62.4481 0.454545 63.3809 0.660511 64.1053 1.07244C64.8345 1.47964 65.3742 2.03125 65.7246 2.72727C66.075 3.4233 66.2502 4.19981 66.2502 5.05682C66.2502 5.91383 66.075 6.69271 65.7246 7.39347C65.379 8.09422 64.8439 8.65294 64.1195 9.0696C63.3951 9.48153 62.467 9.6875 61.3354 9.6875H57.8127V8.125H61.2786C62.0598 8.125 62.6872 7.99006 63.1607 7.72017C63.6342 7.45028 63.9775 7.0857 64.1905 6.62642C64.4083 6.16241 64.5172 5.6392 64.5172 5.05682C64.5172 4.47443 64.4083 3.9536 64.1905 3.49432C63.9775 3.03504 63.6318 2.67519 63.1536 2.41477C62.6754 2.14962 62.0409 2.01705 61.2502 2.01705H58.1536V15H56.3922Z"/>
<path d="M94.0893 5C93.9331 4.52178 93.7271 4.09328 93.4714 3.71449C93.2205 3.33097 92.9198 3.00426 92.5694 2.73438C92.2238 2.46449 91.8308 2.25852 91.3904 2.11648C90.9501 1.97443 90.4672 1.90341 89.9416 1.90341C89.0798 1.90341 88.2962 2.12595 87.5907 2.57102C86.8852 3.0161 86.3242 3.67188 85.9075 4.53835C85.4908 5.40483 85.2825 6.4678 85.2825 7.72727C85.2825 8.98674 85.4932 10.0497 85.9146 10.9162C86.336 11.7827 86.9065 12.4384 87.6262 12.8835C88.3459 13.3286 89.1556 13.5511 90.0552 13.5511C90.8886 13.5511 91.6225 13.3736 92.2569 13.0185C92.8961 12.6586 93.3933 12.152 93.7484 11.4986C94.1083 10.8404 94.2882 10.0663 94.2882 9.17614L94.8279 9.28977H90.4529V7.72727H95.9927V9.28977C95.9927 10.4877 95.737 11.5294 95.2257 12.4148C94.719 13.3002 94.0183 13.9867 93.1234 14.4744C92.2333 14.9574 91.2105 15.1989 90.0552 15.1989C88.7673 15.1989 87.6357 14.8958 86.6603 14.2898C85.6897 13.6837 84.9321 12.822 84.3876 11.7045C83.8478 10.5871 83.5779 9.26136 83.5779 7.72727C83.5779 6.5767 83.7318 5.54214 84.0396 4.62358C84.3521 3.70028 84.7924 2.9143 85.3606 2.26562C85.9288 1.61695 86.6011 1.11979 87.3777 0.774148C88.1542 0.428503 89.0088 0.255681 89.9416 0.255681C90.7086 0.255681 91.4236 0.371685 92.0865 0.603693C92.7541 0.830965 93.3483 1.1553 93.8691 1.5767C94.3947 1.99337 94.8327 2.4929 95.1831 3.07528C95.5334 3.65294 95.7749 4.29451 95.9075 5H94.0893Z"/>
</mask>
<path d="M0.513317 15V0.454545H2.27468V13.4375H9.03604V15H0.513317ZM18.411 10.5398V4.09091H20.0872V15H18.411V13.1534H18.2974C18.0417 13.7074 17.644 14.1785 17.1042 14.5668C16.5645 14.9503 15.8826 15.142 15.0588 15.142C14.377 15.142 13.7709 14.9929 13.2406 14.6946C12.7103 14.3916 12.2936 13.937 11.9906 13.331C11.6876 12.7202 11.536 11.9508 11.536 11.0227V4.09091H13.2122V10.9091C13.2122 11.7045 13.4347 12.339 13.8798 12.8125C14.3296 13.286 14.9025 13.5227 15.5985 13.5227C16.0152 13.5227 16.439 13.4162 16.8699 13.2031C17.3055 12.9901 17.67 12.6634 17.9636 12.223C18.2619 11.7827 18.411 11.2216 18.411 10.5398ZM24.7196 11.0227L24.6912 8.94886H25.0321L29.8049 4.09091H31.8787L26.7935 9.23295H26.6515L24.7196 11.0227ZM23.1571 15V0.454545H24.8333V15H23.1571ZM30.089 15L25.8276 9.60227L27.0208 8.4375L32.2196 15H30.089Z" fill="#A5A72D"/>
<path d="M34.036 15V4.09091H35.7122V15H34.036ZM34.8883 2.27273C34.5616 2.27273 34.2799 2.16146 34.0431 1.93892C33.8111 1.71638 33.6951 1.44886 33.6951 1.13636C33.6951 0.823864 33.8111 0.556345 34.0431 0.333806C34.2799 0.111269 34.5616 0 34.8883 0C35.215 0 35.4944 0.111269 35.7264 0.333806C35.9631 0.556345 36.0815 0.823864 36.0815 1.13636C36.0815 1.44886 35.9631 1.71638 35.7264 1.93892C35.4944 2.16146 35.215 2.27273 34.8883 2.27273ZM38.7821 15V4.09091H40.4015V5.79545H40.5435C40.7708 5.21307 41.1377 4.76089 41.6444 4.43892C42.151 4.11222 42.7594 3.94886 43.4696 3.94886C44.1893 3.94886 44.7883 4.11222 45.2665 4.43892C45.7495 4.76089 46.1259 5.21307 46.3958 5.79545H46.5094C46.7888 5.23201 47.2078 4.78456 47.7665 4.45312C48.3252 4.11695 48.9952 3.94886 49.7765 3.94886C50.7518 3.94886 51.5497 4.25426 52.1699 4.86506C52.7902 5.47112 53.1003 6.41572 53.1003 7.69886V15H51.4242V7.69886C51.4242 6.89394 51.204 6.31866 50.7637 5.97301C50.3233 5.62737 49.8049 5.45455 49.2083 5.45455C48.4412 5.45455 47.847 5.68655 47.4256 6.15057C47.0042 6.60985 46.7935 7.19223 46.7935 7.89773V15H45.089V7.52841C45.089 6.90814 44.8877 6.40862 44.4853 6.02983C44.0828 5.64631 43.5643 5.45455 42.9299 5.45455C42.4943 5.45455 42.0871 5.57055 41.7083 5.80256C41.3342 6.03456 41.0312 6.35653 40.7992 6.76847C40.5719 7.17566 40.4583 7.64678 40.4583 8.18182V15H38.7821ZM80.6216 0.454545V15H78.9171L70.9909 3.57955H70.8489V15H69.0875V0.454545H70.7921L78.7466 11.9034H78.8887V0.454545H80.6216Z" fill="#A40E3B"/>
<path d="M56.3922 15V0.454545H61.307C62.4481 0.454545 63.3809 0.660511 64.1053 1.07244C64.8345 1.47964 65.3742 2.03125 65.7246 2.72727C66.075 3.4233 66.2502 4.19981 66.2502 5.05682C66.2502 5.91383 66.075 6.69271 65.7246 7.39347C65.379 8.09422 64.8439 8.65294 64.1195 9.0696C63.3951 9.48153 62.467 9.6875 61.3354 9.6875H57.8127V8.125H61.2786C62.0598 8.125 62.6872 7.99006 63.1607 7.72017C63.6342 7.45028 63.9775 7.0857 64.1905 6.62642C64.4083 6.16241 64.5172 5.6392 64.5172 5.05682C64.5172 4.47443 64.4083 3.9536 64.1905 3.49432C63.9775 3.03504 63.6318 2.67519 63.1536 2.41477C62.6754 2.14962 62.0409 2.01705 61.2502 2.01705H58.1536V15H56.3922Z" fill="#220D13"/>
<path d="M94.0893 5C93.9331 4.52178 93.7271 4.09328 93.4714 3.71449C93.2205 3.33097 92.9198 3.00426 92.5694 2.73438C92.2238 2.46449 91.8308 2.25852 91.3904 2.11648C90.9501 1.97443 90.4672 1.90341 89.9416 1.90341C89.0798 1.90341 88.2962 2.12595 87.5907 2.57102C86.8852 3.0161 86.3242 3.67188 85.9075 4.53835C85.4908 5.40483 85.2825 6.4678 85.2825 7.72727C85.2825 8.98674 85.4932 10.0497 85.9146 10.9162C86.336 11.7827 86.9065 12.4384 87.6262 12.8835C88.3459 13.3286 89.1556 13.5511 90.0552 13.5511C90.8886 13.5511 91.6225 13.3736 92.2569 13.0185C92.8961 12.6586 93.3933 12.152 93.7484 11.4986C94.1083 10.8404 94.2882 10.0663 94.2882 9.17614L94.8279 9.28977H90.4529V7.72727H95.9927V9.28977C95.9927 10.4877 95.737 11.5294 95.2257 12.4148C94.719 13.3002 94.0183 13.9867 93.1234 14.4744C92.2333 14.9574 91.2105 15.1989 90.0552 15.1989C88.7673 15.1989 87.6357 14.8958 86.6603 14.2898C85.6897 13.6837 84.9321 12.822 84.3876 11.7045C83.8478 10.5871 83.5779 9.26136 83.5779 7.72727C83.5779 6.5767 83.7318 5.54214 84.0396 4.62358C84.3521 3.70028 84.7924 2.9143 85.3606 2.26562C85.9288 1.61695 86.6011 1.11979 87.3777 0.774148C88.1542 0.428503 89.0088 0.255681 89.9416 0.255681C90.7086 0.255681 91.4236 0.371685 92.0865 0.603693C92.7541 0.830965 93.3483 1.1553 93.8691 1.5767C94.3947 1.99337 94.8327 2.4929 95.1831 3.07528C95.5334 3.65294 95.7749 4.29451 95.9075 5H94.0893Z" fill="#121010"/>
<path d="M0.513317 15H-0.486683V16H0.513317V15ZM0.513317 0.454545V-0.545455H-0.486683V0.454545H0.513317ZM2.27468 0.454545H3.27468V-0.545455H2.27468V0.454545ZM2.27468 13.4375H1.27468V14.4375H2.27468V13.4375ZM9.03604 13.4375H10.036V12.4375H9.03604V13.4375ZM9.03604 15V16H10.036V15H9.03604ZM1.51332 15V0.454545H-0.486683V15H1.51332ZM0.513317 1.45455H2.27468V-0.545455H0.513317V1.45455ZM1.27468 0.454545V13.4375H3.27468V0.454545H1.27468ZM2.27468 14.4375H9.03604V12.4375H2.27468V14.4375ZM8.03604 13.4375V15H10.036V13.4375H8.03604ZM9.03604 14H0.513317V16H9.03604V14ZM18.411 4.09091V3.09091H17.411V4.09091H18.411ZM20.0872 4.09091H21.0872V3.09091H20.0872V4.09091ZM20.0872 15V16H21.0872V15H20.0872ZM18.411 15H17.411V16H18.411V15ZM18.411 13.1534H19.411V12.1534H18.411V13.1534ZM18.2974 13.1534V12.1534H17.6576L17.3894 12.7344L18.2974 13.1534ZM17.1042 14.5668L17.6834 15.382L17.6882 15.3786L17.1042 14.5668ZM13.2406 14.6946L12.7444 15.5629L12.7503 15.5662L13.2406 14.6946ZM11.9906 13.331L11.0948 13.7754L11.0962 13.7782L11.9906 13.331ZM11.536 4.09091V3.09091H10.536V4.09091H11.536ZM13.2122 4.09091H14.2122V3.09091H13.2122V4.09091ZM13.8798 12.8125L13.1512 13.4974L13.1548 13.5012L13.8798 12.8125ZM16.8699 13.2031L16.4305 12.3048L16.4266 12.3067L16.8699 13.2031ZM17.9636 12.223L17.1357 11.6621L17.1316 11.6683L17.9636 12.223ZM19.411 10.5398V4.09091H17.411V10.5398H19.411ZM18.411 5.09091H20.0872V3.09091H18.411V5.09091ZM19.0872 4.09091V15H21.0872V4.09091H19.0872ZM20.0872 14H18.411V16H20.0872V14ZM19.411 15V13.1534H17.411V15H19.411ZM18.411 12.1534H18.2974V14.1534H18.411V12.1534ZM17.3894 12.7344C17.2125 13.1178 16.9329 13.4582 16.5203 13.755L17.6882 15.3786C18.3551 14.8988 18.871 14.297 19.2054 13.5725L17.3894 12.7344ZM16.525 13.7516C16.1919 13.9883 15.7263 14.142 15.0588 14.142V16.142C16.039 16.142 16.937 15.9123 17.6834 15.3819L16.525 13.7516ZM15.0588 14.142C14.5276 14.142 14.0941 14.0273 13.7309 13.823L12.7503 15.5662C13.4477 15.9584 14.2263 16.142 15.0588 16.142V14.142ZM13.7367 13.8264C13.3963 13.6318 13.1098 13.3333 12.885 12.8838L11.0962 13.7782C11.4774 14.5408 12.0242 15.1513 12.7445 15.5628L13.7367 13.8264ZM12.8864 12.8865C12.672 12.4545 12.536 11.8494 12.536 11.0227H10.536C10.536 12.0521 10.7031 12.9859 11.0948 13.7754L12.8864 12.8865ZM12.536 11.0227V4.09091H10.536V11.0227H12.536ZM11.536 5.09091H13.2122V3.09091H11.536V5.09091ZM12.2122 4.09091V10.9091H14.2122V4.09091H12.2122ZM12.2122 10.9091C12.2122 11.899 12.4946 12.7989 13.1512 13.4974L14.6084 12.1276C14.3749 11.8791 14.2122 11.5101 14.2122 10.9091H12.2122ZM13.1548 13.5012C13.8068 14.1876 14.6486 14.5227 15.5985 14.5227V12.5227C15.1565 12.5227 14.8524 12.3844 14.6048 12.1238L13.1548 13.5012ZM15.5985 14.5227C16.191 14.5227 16.7656 14.3703 17.3131 14.0995L16.4266 12.3067C16.1123 12.4621 15.8394 12.5227 15.5985 12.5227V14.5227ZM17.3092 14.1014C17.9182 13.8036 18.4132 13.3515 18.7957 12.7777L17.1316 11.6683C16.9269 11.9753 16.6928 12.1765 16.4305 12.3048L17.3092 14.1014ZM18.7915 12.7839C19.2298 12.1369 19.411 11.3654 19.411 10.5398H17.411C17.411 11.0777 17.294 11.4284 17.1357 11.6622L18.7915 12.7839ZM24.7196 11.0227L23.7197 11.0364L23.7505 13.2838L25.3993 11.7563L24.7196 11.0227ZM24.6912 8.94886V7.94886H23.6774L23.6913 8.96256L24.6912 8.94886ZM25.0321 8.94886V9.94886H25.4515L25.7455 9.64969L25.0321 8.94886ZM29.8049 4.09091V3.09091H29.3855L29.0915 3.39009L29.8049 4.09091ZM31.8787 4.09091L32.5898 4.79408L34.2741 3.09091H31.8787V4.09091ZM26.7935 9.23295V10.233H27.211L27.5045 9.93612L26.7935 9.23295ZM26.6515 9.23295V8.23295H26.2594L25.9718 8.49939L26.6515 9.23295ZM23.1571 15H22.1571V16H23.1571V15ZM23.1571 0.454545V-0.545455H22.1571V0.454545H23.1571ZM24.8333 0.454545H25.8333V-0.545455H24.8333V0.454545ZM24.8333 15V16H25.8333V15H24.8333ZM30.089 15L29.3041 15.6196L29.6044 16H30.089V15ZM25.8276 9.60227L25.1291 8.8867L24.485 9.51545L25.0427 10.2219L25.8276 9.60227ZM27.0208 8.4375L27.8046 7.81654L27.1159 6.94717L26.3222 7.72193L27.0208 8.4375ZM32.2196 15V16H34.2876L33.0035 14.379L32.2196 15ZM25.7195 11.009L25.6911 8.93517L23.6913 8.96256L23.7197 11.0364L25.7195 11.009ZM24.6912 9.94886H25.0321V7.94886H24.6912V9.94886ZM25.7455 9.64969L30.5182 4.79173L29.0915 3.39009L24.3188 8.24804L25.7455 9.64969ZM29.8049 5.09091H31.8787V3.09091H29.8049V5.09091ZM31.1677 3.38774L26.0825 8.52979L27.5045 9.93612L32.5898 4.79408L31.1677 3.38774ZM26.7935 8.23295H26.6515V10.233H26.7935V8.23295ZM25.9718 8.49939L24.04 10.2892L25.3993 11.7563L27.3311 9.96652L25.9718 8.49939ZM24.1571 15V0.454545H22.1571V15H24.1571ZM23.1571 1.45455H24.8333V-0.545455H23.1571V1.45455ZM23.8333 0.454545V15H25.8333V0.454545H23.8333ZM24.8333 14H23.1571V16H24.8333V14ZM30.8738 14.3804L26.6125 8.98263L25.0427 10.2219L29.3041 15.6196L30.8738 14.3804ZM26.5261 10.3178L27.7193 9.15307L26.3222 7.72193L25.1291 8.8867L26.5261 10.3178ZM26.2369 9.05846L31.4358 15.621L33.0035 14.379L27.8046 7.81654L26.2369 9.05846ZM32.2196 14H30.089V16H32.2196V14ZM34.036 15H33.036V16H34.036V15ZM34.036 4.09091V3.09091H33.036V4.09091H34.036ZM35.7122 4.09091H36.7122V3.09091H35.7122V4.09091ZM35.7122 15V16H36.7122V15H35.7122ZM34.0431 1.93892L33.3509 2.66064L33.3582 2.66755L34.0431 1.93892ZM34.0431 0.333806L33.3582 -0.394859L33.3509 -0.387875L34.0431 0.333806ZM35.7264 0.333806L35.0341 1.05553L35.0415 1.06243L35.7264 0.333806ZM35.7264 1.93892L35.0414 1.21025L35.0342 1.21724L35.7264 1.93892ZM35.036 15V4.09091H33.036V15H35.036ZM34.036 5.09091H35.7122V3.09091H34.036V5.09091ZM34.7122 4.09091V15H36.7122V4.09091H34.7122ZM35.7122 14H34.036V16H35.7122V14ZM34.8883 1.27273C34.8146 1.27273 34.7782 1.25744 34.7281 1.21029L33.3582 2.66755C33.7816 3.06548 34.3087 3.27273 34.8883 3.27273V1.27273ZM34.7354 1.21724C34.7197 1.20218 34.7108 1.19109 34.7062 1.18458C34.7017 1.17826 34.7001 1.17472 34.6996 1.17354C34.6991 1.17241 34.6983 1.1704 34.6975 1.16619C34.6966 1.16179 34.6951 1.15234 34.6951 1.13636H32.6951C32.6951 1.73 32.9287 2.25558 33.3509 2.6606L34.7354 1.21724ZM34.6951 1.13636C34.6951 1.12039 34.6966 1.11094 34.6975 1.10654C34.6983 1.10232 34.6991 1.10032 34.6996 1.09918C34.7001 1.09801 34.7017 1.09446 34.7062 1.08814C34.7108 1.08164 34.7197 1.07055 34.7354 1.05549L33.3509 -0.387875C32.9287 0.0171494 32.6951 0.542726 32.6951 1.13636H34.6951ZM34.7281 1.06243C34.7782 1.01529 34.8146 1 34.8883 1V-1C34.3087 -1 33.7816 -0.792749 33.3582 -0.394822L34.7281 1.06243ZM34.8883 1C34.9617 1 34.9917 1.01476 35.0342 1.05549L36.4186 -0.387876C35.9971 -0.792221 35.4684 -1 34.8883 -1V1ZM35.0415 1.06243C35.058 1.07798 35.0673 1.08938 35.072 1.09592C35.0766 1.10226 35.078 1.1055 35.0782 1.10599C35.0784 1.10641 35.0789 1.10742 35.0795 1.11038C35.0801 1.11353 35.0815 1.12168 35.0815 1.13636H37.0815C37.0815 0.5358 36.8401 0.00825425 36.4113 -0.394821L35.0415 1.06243ZM35.0815 1.13636C35.0815 1.15105 35.0801 1.1592 35.0795 1.16234C35.0789 1.16531 35.0784 1.16632 35.0782 1.16674C35.078 1.16723 35.0766 1.17046 35.072 1.17681C35.0673 1.18335 35.058 1.19474 35.0415 1.21029L36.4113 2.66755C36.8401 2.26447 37.0815 1.73693 37.0815 1.13636H35.0815ZM35.0342 1.21724C34.9917 1.25797 34.9617 1.27273 34.8883 1.27273V3.27273C35.4684 3.27273 35.9971 3.06495 36.4186 2.6606L35.0342 1.21724ZM38.7821 15H37.7821V16H38.7821V15ZM38.7821 4.09091V3.09091H37.7821V4.09091H38.7821ZM40.4015 4.09091H41.4015V3.09091H40.4015V4.09091ZM40.4015 5.79545H39.4015V6.79545H40.4015V5.79545ZM40.5435 5.79545V6.79545H41.2267L41.4751 6.159L40.5435 5.79545ZM41.6444 4.43892L42.1807 5.28292L42.1863 5.27933L41.6444 4.43892ZM45.2665 4.43892L44.7024 5.26468L44.7118 5.27097L45.2665 4.43892ZM46.3958 5.79545L45.4885 6.21592L45.757 6.79545H46.3958V5.79545ZM46.5094 5.79545V6.79545H47.1298L47.4053 6.23965L46.5094 5.79545ZM47.7665 4.45312L48.2767 5.3132L48.2821 5.30998L47.7665 4.45312ZM52.1699 4.86506L51.4683 5.57759L51.4711 5.58031L52.1699 4.86506ZM53.1003 15V16H54.1003V15H53.1003ZM51.4242 15H50.4242V16H51.4242V15ZM50.7637 5.97301L50.1462 6.75962L50.1462 6.75962L50.7637 5.97301ZM47.4256 6.15057L48.1625 6.82665L48.1659 6.82286L47.4256 6.15057ZM46.7935 15V16H47.7935V15H46.7935ZM45.089 15H44.089V16H45.089V15ZM44.4853 6.02983L43.7954 6.75378L43.7999 6.75803L44.4853 6.02983ZM41.7083 5.80256L41.186 4.94979L41.1812 4.95275L41.7083 5.80256ZM40.7992 6.76847L39.9279 6.27773L39.926 6.2811L40.7992 6.76847ZM40.4583 15V16H41.4583V15H40.4583ZM39.7821 15V4.09091H37.7821V15H39.7821ZM38.7821 5.09091H40.4015V3.09091H38.7821V5.09091ZM39.4015 4.09091V5.79545H41.4015V4.09091H39.4015ZM40.4015 6.79545H40.5435V4.79545H40.4015V6.79545ZM41.4751 6.159C41.6285 5.76593 41.8613 5.48587 42.1807 5.28291L41.108 3.59493C40.4141 4.03591 39.9131 4.6602 39.6119 5.43191L41.4751 6.159ZM42.1863 5.27933C42.5044 5.0742 42.9168 4.94886 43.4696 4.94886V2.94886C42.602 2.94886 41.7976 3.15023 41.1024 3.59851L42.1863 5.27933ZM43.4696 4.94886C44.0372 4.94886 44.4268 5.07635 44.7024 5.26463L45.8306 3.61321C45.1498 3.14808 44.3415 2.94886 43.4696 2.94886V4.94886ZM44.7118 5.27097C45.0257 5.48022 45.2875 5.78234 45.4885 6.21592L47.3031 5.37499C46.9642 4.6438 46.4732 4.04156 45.8212 3.60687L44.7118 5.27097ZM46.3958 6.79545H46.5094V4.79545H46.3958V6.79545ZM47.4053 6.23965C47.596 5.85507 47.8782 5.54956 48.2767 5.31318L47.2563 3.59307C46.5374 4.01957 45.9815 4.60894 45.6135 5.35125L47.4053 6.23965ZM48.2821 5.30998C48.6568 5.08451 49.1407 4.94886 49.7765 4.94886V2.94886C48.8497 2.94886 47.9937 3.14939 47.251 3.59627L48.2821 5.30998ZM49.7765 4.94886C50.5238 4.94886 51.0583 5.17386 51.4683 5.57758L52.8716 4.15253C52.041 3.33466 50.9799 2.94886 49.7765 2.94886V4.94886ZM51.4711 5.58031C51.8229 5.92407 52.1003 6.55619 52.1003 7.69886H54.1003C54.1003 6.27525 53.7575 5.01817 52.8688 4.14981L51.4711 5.58031ZM52.1003 7.69886V15H54.1003V7.69886H52.1003ZM53.1003 14H51.4242V16H53.1003V14ZM52.4242 15V7.69886H50.4242V15H52.4242ZM52.4242 7.69886C52.4242 6.7275 52.1554 5.79414 51.3811 5.1864L50.1462 6.75962C50.2527 6.84317 50.4242 7.06038 50.4242 7.69886H52.4242ZM51.3811 5.1864C50.7526 4.69308 50.013 4.45455 49.2083 4.45455V6.45455C49.5967 6.45455 49.894 6.56165 50.1462 6.75962L51.3811 5.1864ZM49.2083 4.45455C48.2274 4.45455 47.3377 4.75994 46.6853 5.47827L48.1659 6.82286C48.3563 6.61316 48.655 6.45455 49.2083 6.45455V4.45455ZM46.6888 5.4745C46.0755 6.14284 45.7935 6.97738 45.7935 7.89773H47.7935C47.7935 7.40709 47.9329 7.07686 48.1624 6.82664L46.6888 5.4745ZM45.7935 7.89773V15H47.7935V7.89773H45.7935ZM46.7935 14H45.089V16H46.7935V14ZM46.089 15V7.52841H44.089V15H46.089ZM46.089 7.52841C46.089 6.6696 45.7994 5.89345 45.1706 5.30163L43.7999 6.75803C43.976 6.92378 44.089 7.14668 44.089 7.52841H46.089ZM45.1751 5.30589C44.5602 4.71988 43.7821 4.45455 42.9299 4.45455V6.45455C43.3466 6.45455 43.6054 6.57274 43.7954 6.75376L45.1751 5.30589ZM42.9299 4.45455C42.3061 4.45455 41.7187 4.62351 41.186 4.9498L42.2306 6.65531C42.4554 6.51759 42.6824 6.45455 42.9299 6.45455V4.45455ZM41.1812 4.95275C40.6534 5.28008 40.2362 5.73022 39.9279 6.27773L41.6705 7.2592C41.8261 6.98284 42.015 6.78905 42.2354 6.65236L41.1812 4.95275ZM39.926 6.2811C39.604 6.85801 39.4583 7.5016 39.4583 8.18182H41.4583C41.4583 7.79196 41.5398 7.49331 41.6724 7.25583L39.926 6.2811ZM39.4583 8.18182V15H41.4583V8.18182H39.4583ZM40.4583 14H38.7821V16H40.4583V14ZM56.3922 15H55.3922V16H56.3922V15ZM56.3922 0.454545V-0.545455H55.3922V0.454545H56.3922ZM64.1053 1.07244L63.611 1.94176L63.6177 1.94553L64.1053 1.07244ZM65.7246 2.72727L64.8314 3.17691L64.8314 3.17692L65.7246 2.72727ZM65.7246 7.39347L64.8302 6.94625L64.8278 6.95111L65.7246 7.39347ZM64.1195 9.0696L64.6138 9.9389L64.6181 9.93645L64.1195 9.0696ZM57.8127 9.6875H56.8127V10.6875H57.8127V9.6875ZM57.8127 8.125V7.125H56.8127V8.125H57.8127ZM63.1607 7.72017L62.6655 6.85139L62.6655 6.85139L63.1607 7.72017ZM64.1905 6.62642L63.2853 6.20151L63.2834 6.20558L64.1905 6.62642ZM64.1905 3.49432L63.2834 3.91517L63.287 3.9228L64.1905 3.49432ZM63.1536 2.41477L62.6687 3.28936L62.6753 3.293L63.1536 2.41477ZM58.1536 2.01705V1.01705H57.1536V2.01705H58.1536ZM58.1536 15V16H59.1536V15H58.1536ZM57.3922 15V0.454545H55.3922V15H57.3922ZM56.3922 1.45455H61.307V-0.545455H56.3922V1.45455ZM61.307 1.45455C62.336 1.45455 63.0827 1.64135 63.611 1.94173L64.5996 0.203152C63.679 -0.320333 62.5602 -0.545455 61.307 -0.545455V1.45455ZM63.6177 1.94553C64.1856 2.26263 64.5774 2.67241 64.8314 3.17691L66.6178 2.27763C66.171 1.39009 65.4834 0.696649 64.5929 0.199357L63.6177 1.94553ZM64.8314 3.17692C65.1048 3.71996 65.2502 4.34014 65.2502 5.05682H67.2502C67.2502 4.05948 67.0452 3.12663 66.6178 2.27763L64.8314 3.17692ZM65.2502 5.05682C65.2502 5.7734 65.1048 6.39703 64.8302 6.94625L66.619 7.84068C67.0452 6.98839 67.2502 6.05425 67.2502 5.05682H65.2502ZM64.8278 6.95111C64.5761 7.46145 64.186 7.87774 63.6209 8.20276L64.6181 9.93645C65.5019 9.42813 66.1819 8.727 66.6214 7.83582L64.8278 6.95111ZM63.6252 8.20031C63.0959 8.50131 62.3532 8.6875 61.3354 8.6875V10.6875C62.5808 10.6875 63.6943 10.4618 64.6138 9.93889L63.6252 8.20031ZM61.3354 8.6875H57.8127V10.6875H61.3354V8.6875ZM58.8127 9.6875V8.125H56.8127V9.6875H58.8127ZM57.8127 9.125H61.2786V7.125H57.8127V9.125ZM61.2786 9.125C62.1627 9.125 62.9801 8.97417 63.6559 8.58895L62.6655 6.85139C62.3943 7.00594 61.957 7.125 61.2786 7.125V9.125ZM63.6559 8.58895C64.2953 8.22447 64.7903 7.70968 65.0977 7.04726L63.2834 6.20558C63.1646 6.46173 62.973 6.6761 62.6655 6.85139L63.6559 8.58895ZM65.0958 7.05133C65.384 6.43734 65.5172 5.76604 65.5172 5.05682H63.5172C63.5172 5.51237 63.4327 5.88747 63.2853 6.20151L65.0958 7.05133ZM65.5172 5.05682C65.5172 4.34782 65.384 3.67726 65.0941 3.06583L63.287 3.9228C63.4326 4.22993 63.5172 4.60104 63.5172 5.05682H65.5172ZM65.0977 3.07348C64.7874 2.40468 64.2833 1.89129 63.6318 1.53654L62.6753 3.293C62.9803 3.45909 63.1675 3.6654 63.2834 3.91515L65.0977 3.07348ZM63.6385 1.54021C62.9603 1.16419 62.1397 1.01705 61.2502 1.01705V3.01705C61.942 3.01705 62.3904 3.13506 62.6687 3.28934L63.6385 1.54021ZM61.2502 1.01705H58.1536V3.01705H61.2502V1.01705ZM57.1536 2.01705V15H59.1536V2.01705H57.1536ZM58.1536 14H56.3922V16H58.1536V14ZM80.6216 0.454545H81.6216V-0.545455H80.6216V0.454545ZM80.6216 15V16H81.6216V15H80.6216ZM78.9171 15L78.0956 15.5702L78.3939 16H78.9171V15ZM70.9909 3.57955L71.8125 3.00938L71.5142 2.57955H70.9909V3.57955ZM70.8489 3.57955V2.57955H69.8489V3.57955H70.8489ZM70.8489 15V16H71.8489V15H70.8489ZM69.0875 15H68.0875V16H69.0875V15ZM69.0875 0.454545V-0.545455H68.0875V0.454545H69.0875ZM70.7921 0.454545L71.6133 -0.116042L71.315 -0.545455H70.7921V0.454545ZM78.7466 11.9034L77.9254 12.474L78.2237 12.9034H78.7466V11.9034ZM78.8887 11.9034V12.9034H79.8887V11.9034H78.8887ZM78.8887 0.454545V-0.545455H77.8887V0.454545H78.8887ZM79.6216 0.454545V15H81.6216V0.454545H79.6216ZM80.6216 14H78.9171V16H80.6216V14ZM79.7386 14.4298L71.8125 3.00938L70.1694 4.14971L78.0956 15.5702L79.7386 14.4298ZM70.9909 2.57955H70.8489V4.57955H70.9909V2.57955ZM69.8489 3.57955V15H71.8489V3.57955H69.8489ZM70.8489 14H69.0875V16H70.8489V14ZM70.0875 15V0.454545H68.0875V15H70.0875ZM69.0875 1.45455H70.7921V-0.545455H69.0875V1.45455ZM69.9708 1.02513L77.9254 12.474L79.5679 11.3328L71.6133 -0.116042L69.9708 1.02513ZM78.7466 12.9034H78.8887V10.9034H78.7466V12.9034ZM79.8887 11.9034V0.454545H77.8887V11.9034H79.8887ZM78.8887 1.45455H80.6216V-0.545455H78.8887V1.45455ZM94.0893 5L93.1388 5.31058L93.364 6H94.0893V5ZM93.4714 3.71449L92.6346 4.26202L92.6386 4.26802L92.6426 4.27396L93.4714 3.71449ZM92.5694 2.73438L91.954 3.52258L91.9592 3.5266L92.5694 2.73438ZM91.3904 2.11648L91.6975 1.16477L91.6974 1.16477L91.3904 2.11648ZM85.9075 4.53835L86.8087 4.97172L86.8087 4.97172L85.9075 4.53835ZM85.9146 10.9162L85.0153 11.3536L85.0153 11.3536L85.9146 10.9162ZM87.6262 12.8835L87.1003 13.734L87.6262 12.8835ZM92.2569 13.0185L92.7453 13.8911L92.7475 13.8899L92.2569 13.0185ZM93.7484 11.4986L92.871 11.0188L92.8698 11.0211L93.7484 11.4986ZM94.2882 9.17614L94.4942 8.19759L93.2882 7.94369V9.17614H94.2882ZM94.8279 9.28977V10.2898L95.034 8.31122L94.8279 9.28977ZM90.4529 9.28977H89.4529V10.2898H90.4529V9.28977ZM90.4529 7.72727V6.72727H89.4529V7.72727H90.4529ZM95.9927 7.72727H96.9927V6.72727H95.9927V7.72727ZM95.2257 12.4148L94.3597 11.9146L94.3577 11.9181L95.2257 12.4148ZM93.1234 14.4744L93.6003 15.3534L93.6019 15.3525L93.1234 14.4744ZM86.6603 14.2898L86.1307 15.138L86.1326 15.1392L86.6603 14.2898ZM84.3876 11.7045L83.4872 12.1395L83.4887 12.1426L84.3876 11.7045ZM84.0396 4.62358L83.0924 4.30298L83.0914 4.30589L84.0396 4.62358ZM85.3606 2.26562L86.1129 2.92452L86.1129 2.92452L85.3606 2.26562ZM87.3777 0.774148L86.971 -0.139434L87.3777 0.774148ZM92.0865 0.603693L91.7561 1.54759L91.7642 1.55034L92.0865 0.603693ZM93.8691 1.5767L93.2401 2.35415L93.2479 2.36032L93.8691 1.5767ZM95.1831 3.07528L94.3262 3.59081L94.3281 3.5939L95.1831 3.07528ZM95.9075 5V6H97.1129L96.8903 4.81531L95.9075 5ZM95.0399 4.68942C94.8577 4.13179 94.6128 3.61803 94.3003 3.15501L92.6426 4.27396C92.8414 4.56852 93.0085 4.91177 93.1388 5.31058L95.0399 4.68942ZM94.3082 3.16696C93.9982 2.69321 93.6219 2.28281 93.1797 1.94215L91.9592 3.5266C92.2177 3.72571 92.4427 3.96872 92.6346 4.26202L94.3082 3.16696ZM93.1849 1.94619C92.7418 1.60022 92.2432 1.34081 91.6975 1.16477L91.0834 3.06818C91.4184 3.17623 91.7058 3.32875 91.954 3.52256L93.1849 1.94619ZM91.6974 1.16477C91.1455 0.98671 90.5574 0.903409 89.9416 0.903409V2.90341C90.3769 2.90341 90.7547 2.96215 91.0834 3.06819L91.6974 1.16477ZM89.9416 0.903409C88.8976 0.903409 87.9279 1.17597 87.0572 1.72526L88.1243 3.41678C88.6646 3.07592 89.2621 2.90341 89.9416 2.90341V0.903409ZM87.0572 1.72526C86.1698 2.2851 85.4917 3.09562 85.0063 4.10498L86.8087 4.97172C87.1567 4.24813 87.6007 3.7471 88.1243 3.41678L87.0572 1.72526ZM85.0063 4.10498C84.5077 5.14183 84.2825 6.36238 84.2825 7.72727H86.2825C86.2825 6.57323 86.474 5.66783 86.8087 4.97172L85.0063 4.10498ZM84.2825 7.72727C84.2825 9.09356 84.5105 10.3156 85.0153 11.3536L86.8139 10.4788C86.4759 9.78382 86.2825 8.87993 86.2825 7.72727H84.2825ZM85.0153 11.3536C85.5077 12.3661 86.1981 13.1761 87.1003 13.734L88.1522 12.033C87.615 11.7008 87.1642 11.1992 86.8139 10.4788L85.0153 11.3536ZM87.1003 13.734C87.9881 14.2831 88.982 14.5511 90.0552 14.5511V12.5511C89.3292 12.5511 88.7038 12.3741 88.1522 12.033L87.1003 13.734ZM90.0552 14.5511C91.0343 14.5511 91.941 14.3413 92.7453 13.8911L91.7685 12.1458C91.3039 12.4059 90.7428 12.5511 90.0552 12.5511V14.5511ZM92.7475 13.8899C93.5529 13.4365 94.1835 12.7922 94.627 11.9761L92.8698 11.0211C92.6031 11.5117 92.2394 11.8808 91.7664 12.1471L92.7475 13.8899ZM94.6258 11.9783C95.0799 11.1479 95.2882 10.2026 95.2882 9.17614H93.2882C93.2882 9.92993 93.1366 10.533 92.871 11.0188L94.6258 11.9783ZM94.0822 10.1547L94.6219 10.2683L95.034 8.31122L94.4942 8.19759L94.0822 10.1547ZM94.8279 8.28977H90.4529V10.2898H94.8279V8.28977ZM91.4529 9.28977V7.72727H89.4529V9.28977H91.4529ZM90.4529 8.72727H95.9927V6.72727H90.4529V8.72727ZM94.9927 7.72727V9.28977H96.9927V7.72727H94.9927ZM94.9927 9.28977C94.9927 10.3425 94.7692 11.2056 94.3597 11.9146L96.0916 12.9149C96.7048 11.8531 96.9927 10.6329 96.9927 9.28977H94.9927ZM94.3577 11.9181C93.943 12.643 93.377 13.1974 92.6449 13.5964L93.6019 15.3525C94.6596 14.7761 95.4951 13.9574 96.0936 12.9114L94.3577 11.9181ZM92.6465 13.5955C91.9223 13.9884 91.0677 14.1989 90.0552 14.1989V16.1989C91.3534 16.1989 92.5442 15.9264 93.6003 15.3534L92.6465 13.5955ZM90.0552 14.1989C88.9306 14.1989 87.9864 13.9364 87.1881 13.4404L86.1326 15.1392C87.2851 15.8553 88.6041 16.1989 90.0552 16.1989V14.1989ZM87.19 13.4415C86.3921 12.9434 85.7562 12.2304 85.2866 11.2665L83.4887 12.1426C84.108 13.4136 84.9872 14.424 86.1307 15.138L87.19 13.4415ZM85.2881 11.2696C84.8274 10.316 84.5779 9.14553 84.5779 7.72727H82.5779C82.5779 9.37719 82.8682 10.8582 83.4872 12.1395L85.2881 11.2696ZM84.5779 7.72727C84.5779 6.665 84.7201 5.74028 84.9878 4.94127L83.0914 4.30589C82.7436 5.344 82.5779 6.48841 82.5779 7.72727H84.5779ZM84.9868 4.94418C85.2627 4.1292 85.6418 3.46226 86.1129 2.92452L84.6084 1.60673C83.943 2.36634 83.4415 3.27137 83.0924 4.30298L84.9868 4.94418ZM86.1129 2.92452C86.5871 2.38312 87.142 1.97362 87.7843 1.68773L86.971 -0.139434C86.0602 0.265965 85.2705 0.85078 84.6084 1.60673L86.1129 2.92452ZM87.7843 1.68773C88.4208 1.4044 89.1352 1.25568 89.9416 1.25568V-0.744319C88.8825 -0.744319 87.8875 -0.547398 86.971 -0.139434L87.7843 1.68773ZM89.9416 1.25568C90.6065 1.25568 91.2088 1.35598 91.7561 1.54755L92.4168 -0.340166C91.6384 -0.612606 90.8108 -0.744319 89.9416 -0.744319V1.25568ZM91.7642 1.55034C92.3263 1.74171 92.8155 2.01057 93.2401 2.35411L94.4981 0.799294C93.8811 0.300032 93.1818 -0.0797769 92.4087 -0.342957L91.7642 1.55034ZM93.2479 2.36032C93.6782 2.70146 94.0368 3.10979 94.3262 3.5908L96.0399 2.55976C95.6286 1.87601 95.1112 1.28528 94.4904 0.793088L93.2479 2.36032ZM94.3281 3.5939C94.6123 4.06254 94.8129 4.58983 94.9247 5.18469L96.8903 4.81531C96.7369 3.99918 96.4546 3.24334 96.0381 2.55667L94.3281 3.5939ZM95.9075 4H94.0893V6H95.9075V4Z" fill="black" mask="url(#path-1-outside-1_1_2)"/>
</svg>
